<svg width="62" height="73" viewBox="0 0 62 73" fill="none" xmlns="http://www.w3.org/2000/svg">
<path d="M30.75 72.9542C13.7734 72.9542 0 60.7002 0 45.5964C0 32.6014 20.8523 8.2216 26.682 1.66712C27.643 0.598453 29.0684 0 30.6059 0H30.8941C32.4316 0 33.857 0.598453 34.818 1.66712C40.6477 8.2216 61.5 32.6014 61.5 45.5964C61.5 60.7002 47.7266 72.9542 30.75 72.9542ZM22.5403 26.9689C22.5403 25.715 14.2219 45.5964 12.8125 45.5964C12.8125 31.2908 10.25 46.6223 10.25 47.8762C10.25 56.6963 18.2738 63.835 28.1875 63.835C29.5969 63.835 30.75 62.809 30.75 61.5551C30.75 60.3012 29.5969 59.2753 28.1875 59.2753C21.1086 59.2753 22.5403 33.2669 22.5403 26.9689Z" fill="#F79148"/>
</svg>
