<svg width="105" height="68" viewBox="0 0 105 68" fill="none" xmlns="http://www.w3.org/2000/svg">
<g clip-path="url(#clip0_30_106)">
<path d="M7.80609 0C3.49646 0 -3.05176e-05 2.85547 -3.05176e-05 6.375V48.875C-3.05176e-05 52.3945 3.49646 55.25 7.80609 55.25H10.4081C10.4081 62.2891 17.4011 68 26.0204 68C34.6396 68 41.6326 62.2891 41.6326 55.25H62.449C62.449 62.2891 69.4419 68 78.0612 68C86.6805 68 93.6734 62.2891 93.6734 55.25H98.8775C101.756 55.25 104.082 53.3508 104.082 51C104.082 48.6492 101.756 46.75 98.8775 46.75V38.25V34V31.5164C98.8775 29.2586 97.7879 27.0938 95.8364 25.5L83.2653 15.2336C81.3137 13.6398 78.6629 12.75 75.8983 12.75H67.653V6.375C67.653 2.85547 64.1565 0 59.8469 0H7.80609ZM67.653 21.25H75.8983L88.4694 31.5164V34H67.653V21.25ZM18.2143 55.25C18.2143 53.5592 19.0367 51.9377 20.5006 50.7422C21.9645 49.5466 23.9501 48.875 26.0204 48.875C28.0907 48.875 30.0762 49.5466 31.5401 50.7422C33.0041 51.9377 33.8265 53.5592 33.8265 55.25C33.8265 56.9408 33.0041 58.5623 31.5401 59.7578C30.0762 60.9533 28.0907 61.625 26.0204 61.625C23.9501 61.625 21.9645 60.9533 20.5006 59.7578C19.0367 58.5623 18.2143 56.9408 18.2143 55.25ZM78.0612 48.875C80.1315 48.875 82.117 49.5466 83.581 50.7422C85.0449 51.9377 85.8673 53.5592 85.8673 55.25C85.8673 56.9408 85.0449 58.5623 83.581 59.7578C82.117 60.9533 80.1315 61.625 78.0612 61.625C75.9909 61.625 74.0054 60.9533 72.5414 59.7578C71.0775 58.5623 70.2551 56.9408 70.2551 55.25C70.2551 53.5592 71.0775 51.9377 72.5414 50.7422C74.0054 49.5466 75.9909 48.875 78.0612 48.875Z" fill="#F79148"/>
</g>
<defs>
<clipPath id="clip0_30_106">
<rect width="104.082" height="68" fill="white"/>
</clipPath>
</defs>
</svg>
